<?xml version="1.0" encoding="UTF-8" standalone="no"?>
<!-- Created with Inkscape (http://www.inkscape.org/) -->

<svg
   xmlns:dc="http://purl.org/dc/elements/1.1/"
   xmlns:cc="http://creativecommons.org/ns#"
   xmlns:rdf="http://www.w3.org/1999/02/22-rdf-syntax-ns#"
   xmlns:svg="http://www.w3.org/2000/svg"
   xmlns="http://www.w3.org/2000/svg"
   xmlns:sodipodi="http://sodipodi.sourceforge.net/DTD/sodipodi-0.dtd"
   xmlns:inkscape="http://www.inkscape.org/namespaces/inkscape"
   width="297mm"
   height="210mm"
   viewBox="0 0 1052.3622 744.09448"
   id="svg2"
   version="1.1"
   inkscape:version="0.91 r13725"
   sodipodi:docname="uzina_logo.svg">
  <defs
     id="defs4" />
  <sodipodi:namedview
     id="base"
     pagecolor="#ffffff"
     bordercolor="#666666"
     borderopacity="1.0"
     inkscape:pageopacity="0.0"
     inkscape:pageshadow="2"
     inkscape:zoom="0.49497475"
     inkscape:cx="467.80117"
     inkscape:cy="354.98516"
     inkscape:document-units="px"
     inkscape:current-layer="layer1"
     showgrid="false"
     inkscape:window-width="1366"
     inkscape:window-height="703"
     inkscape:window-x="0"
     inkscape:window-y="0"
     inkscape:window-maximized="1" />
  <metadata
     id="metadata7">
    <rdf:RDF>
      <cc:Work
         rdf:about="">
        <dc:format>image/svg+xml</dc:format>
        <dc:type
           rdf:resource="http://purl.org/dc/dcmitype/StillImage" />
        <dc:title></dc:title>
      </cc:Work>
    </rdf:RDF>
  </metadata>
  <g
     inkscape:label="Camada 1"
     inkscape:groupmode="layer"
     id="layer1"
     transform="translate(0,-308.26772)">
    <g
       id="g3372"
       style="stroke:#800080">
      <path
         d="m 53.289795,491.49878 0,-3.26266 7.975387,0 -0.362517,3.62518 -0.362518,164.22046 c 0,39.1519 35.526723,71.05345 79.753863,71.05345 44.22715,0 79.75387,-31.90155 79.75387,-71.05345 l 0,-164.58298 0,-3.26266 7.97539,0 -0.36252,3.62518 -0.36252,164.22046 c 0,42.77708 -38.42686,78.3038 -87.00422,78.3038 -48.577351,0 -87.004215,-35.52672 -87.004215,-78.3038 l 0,-164.58298 z"
         style="font-style:normal;font-variant:normal;font-weight:normal;font-stretch:normal;font-size:medium;line-height:125%;font-family:Adam;-inkscape-font-specification:'Adam, Normal';text-align:start;letter-spacing:0px;word-spacing:0px;writing-mode:lr-tb;text-anchor:start;fill:#800080;fill-opacity:1;stroke:#800080;stroke-width:1px;stroke-linecap:butt;stroke-linejoin:miter;stroke-opacity:1"
         id="path3357"
         inkscape:connector-curvature="0" />
      <path
         d="m 427.2713,495.12396 3.62517,0 0,-7.25035 -3.62517,0 -152.98242,0 c -2.90014,0 -4.71273,3.26265 -2.90014,5.80028 l 155.88256,233.46132 -159.87026,0 -3.62517,0 0,7.25035 3.62517,0 166.75809,0 c 2.90014,0 4.71273,-3.26266 2.90014,-5.80028 l -155.88256,-233.46132 146.09459,0 z"
         style="font-style:normal;font-variant:normal;font-weight:normal;font-stretch:normal;font-size:medium;line-height:125%;font-family:Adam;-inkscape-font-specification:'Adam, Normal';text-align:start;letter-spacing:0px;word-spacing:0px;writing-mode:lr-tb;text-anchor:start;fill:#800080;fill-opacity:1;stroke:#800080;stroke-width:1px;stroke-linecap:butt;stroke-linejoin:miter;stroke-opacity:1"
         id="path3359"
         inkscape:connector-curvature="0" />
      <path
         d="m 485.10487,491.49878 0,-3.62517 7.25035,0 0,3.62517 0,239.2616 0,3.62518 -7.25035,0 0,-3.62518 0,-239.2616 z"
         style="font-style:normal;font-variant:normal;font-weight:normal;font-stretch:normal;font-size:medium;line-height:125%;font-family:Adam;-inkscape-font-specification:'Adam, Normal';text-align:start;letter-spacing:0px;word-spacing:0px;writing-mode:lr-tb;text-anchor:start;fill:#800080;fill-opacity:1;stroke:#800080;stroke-width:1px;stroke-linecap:butt;stroke-linejoin:miter;stroke-opacity:1"
         id="path3361"
         inkscape:connector-curvature="0" />
      <path
         d="m 575.4567,730.76038 0,3.62518 -7.25035,0 0,-3.62518 0,-239.2616 c 0,-3.26266 4.71272,-4.71273 6.52531,-2.1751 l 167.12061,230.19866 0.36251,-228.02356 0,-3.62517 7.25035,0 0,3.62517 -0.36251,239.2616 c 0,3.26266 -4.71273,4.71273 -6.52532,2.17511 l -167.1206,-230.19866 0,228.02355 z"
         style="font-style:normal;font-variant:normal;font-weight:normal;font-stretch:normal;font-size:medium;line-height:125%;font-family:Adam;-inkscape-font-specification:'Adam, Normal';text-align:start;letter-spacing:0px;word-spacing:0px;writing-mode:lr-tb;text-anchor:start;fill:#800080;fill-opacity:1;stroke:#800080;stroke-width:1px;stroke-linecap:butt;stroke-linejoin:miter;stroke-opacity:1"
         id="path3363"
         inkscape:connector-curvature="0" />
      <path
         d="m 799.5719,732.21045 -0.72504,2.17511 -7.97538,0 2.1751,-5.07525 105.1301,-239.2616 c 1.08755,-2.53762 5.43776,-2.53762 6.52532,0 l 105.1301,239.2616 2.1751,5.07525 -7.9754,0 -0.725,-2.17511 L 901.43934,500.56172 799.5719,732.21045 Z"
         style="font-style:normal;font-variant:normal;font-weight:normal;font-stretch:normal;font-size:medium;line-height:125%;font-family:Adam;-inkscape-font-specification:'Adam, Normal';text-align:start;letter-spacing:0px;word-spacing:0px;writing-mode:lr-tb;text-anchor:start;fill:#800080;fill-opacity:1;stroke:#800080;stroke-width:1px;stroke-linecap:butt;stroke-linejoin:miter;stroke-opacity:1"
         id="path3365"
         inkscape:connector-curvature="0" />
    </g>
  </g>
</svg>
